<?xml version="1.0" encoding="UTF-8" standalone="no"?>
<!DOCTYPE svg PUBLIC "-//W3C//DTD SVG 1.1//EN" "http://www.w3.org/Graphics/SVG/1.1/DTD/svg11.dtd">
<svg width="100%" height="100%" viewBox="0 0 1061 976" version="1.1" xmlns="http://www.w3.org/2000/svg" xmlns:xlink="http://www.w3.org/1999/xlink" xml:space="preserve" xmlns:serif="http://www.serif.com/" style="fill-rule:evenodd;clip-rule:evenodd;stroke-linejoin:round;stroke-miterlimit:2;">
    <g transform="matrix(1,0,0,1,-13331.8,-27795.6)">
        <g id="ƛs" transform="matrix(1.38408,0,0,1.35485,14809.7,28172.8)">
            <rect x="-1067.79" y="-278.37" width="766.37" height="719.641" style="fill:none;"/>
            <g transform="matrix(0.839655,0,0,0.857768,-1603.92,-169.369)">
                <g transform="matrix(1,0,0,1,1093.34,157.575)">
                    <path d="M0,250.14C12.867,257.981 23.843,256.983 34.741,253.425C50.719,248.206 64.446,238.67 77.86,228.951C117.349,200.339 150.635,166.123 169.991,120.542C180.034,96.893 173.322,81.526 150.651,69.867C131.303,59.918 110.612,58.623 89.453,59.197C83.715,59.353 76.223,61.672 73.634,53.783C71.288,46.637 70.821,38.832 76.272,32.616C80.851,27.394 85.795,22.241 91.412,18.223C112.218,3.343 134.956,-7.487 160.272,-12.286C166.026,-13.377 172.197,-14.187 172.458,-21.608C172.74,-29.645 166.842,-32.925 160.085,-34.585C157.173,-35.3 153.985,-35.398 150.977,-35.14C115.355,-32.084 82.452,-20.863 54.41,1.359C37.015,15.144 32.319,35.317 35.335,56.904C38.275,77.942 53.563,87.53 71.612,94.138C83.143,98.36 94.836,95.899 106.555,95.241C115.335,94.748 126.322,90.26 132.035,99.445C137.381,108.04 131.145,117.373 126.675,125.161C104.239,164.255 76.11,198.312 37.968,223.314C25.672,231.374 12.809,238.723 0,250.14M-130.207,121.001C-105.985,110.311 -83.003,100.169 -59.877,89.963C-62.748,78.798 -66.753,69.817 -72.711,60.078C-96.141,70.211 -119.206,80.187 -144.177,90.988C-164.389,34.321 -206.808,15.705 -264.296,22.575L-264.296,66.6C-230.139,63.476 -204.6,76.483 -192.342,112.244C-215.342,122.409 -238.665,132.716 -263.165,143.543C-258.871,153.246 -254.897,162.228 -250.113,173.038C-226.125,162.71 -202.744,152.645 -178.144,142.054C-173.458,153.011 -169.133,163.34 -164.603,173.579C-163.256,176.623 -163.254,179.274 -164.657,182.311C-186.984,230.616 -209.234,278.957 -232.143,328.683C-263.024,291.352 -283.188,250.32 -293.825,204.713C-333.732,33.601 -219.801,-135.996 -46.552,-163.745C117.422,-190.008 272.641,-78.451 300.599,85.755C328.446,249.307 217.208,406.087 53.403,434.154C18.424,440.148 18.679,440.005 1.679,409.659C-43.247,329.467 -75.347,243.39 -113.253,159.978C-118.833,147.7 -124.024,135.245 -130.207,121.001" style="fill:rgb(255,0,0);fill-rule:nonzero;"/>
                </g>
                <g transform="matrix(1,0,0,1,1049.93,391.463)">
                    <path d="M0,200.263C-20.702,199.699 -37.258,194.23 -53.611,188.673C-87.32,177.219 -117.856,159.837 -145.871,137.81C-152.907,132.278 -154.261,127.767 -150.25,119.338C-131.742,80.44 -114.02,41.169 -95.082,0C-63.479,67.382 -38.117,135.393 0,200.263" style="fill:rgb(255,0,0);fill-rule:nonzero;"/>
                </g>
            </g>
        </g>
    </g>
</svg>
