<?xml version="1.0" encoding="UTF-8" standalone="no"?>
<!DOCTYPE svg PUBLIC "-//W3C//DTD SVG 1.1//EN" "http://www.w3.org/Graphics/SVG/1.1/DTD/svg11.dtd">
<svg width="100%" height="100%" viewBox="0 0 1163 1023" version="1.1" xmlns="http://www.w3.org/2000/svg" xmlns:xlink="http://www.w3.org/1999/xlink" xml:space="preserve" xmlns:serif="http://www.serif.com/" style="fill-rule:evenodd;clip-rule:evenodd;stroke-linejoin:round;stroke-miterlimit:2;">
    <g transform="matrix(1,0,0,1,-13082.6,-22601.6)">
        <g id="🌙" transform="matrix(1,0,0,1,11724.3,22680.7)">
            <rect x="1358.34" y="-79.096" width="1162.63" height="1022.11" style="fill:none;"/>
            <g transform="matrix(0.322061,-0.267497,0.267497,0.322061,1447.46,385.451)">
                <g>
                    <g transform="matrix(1.08086,0.897739,-0.897739,1.08086,688.26,-765.013)">
                        <path d="M744.576,317.676L740.356,284.483C740.356,284.483 737.846,284.801 735.337,285.119C732.824,285.408 730.328,285.828 730.328,285.828L733.385,306.685C733.385,306.685 729.298,307.328 725.21,307.969C723.169,308.305 721.117,308.577 719.596,308.885C718.071,309.172 717.054,309.363 717.054,309.363L714.909,297.44L711.343,298.11L713.569,310.01C713.569,310.01 709.506,310.777 705.442,311.545C701.402,312.43 697.362,313.316 697.362,313.316L690.194,280.885L688.935,281.16L691.619,293.163C691.638,293.25 691.59,293.335 691.505,293.354L686.754,294.396L691.904,316.453C691.923,316.536 691.877,316.616 691.803,316.633C691.803,316.633 691.514,316.687 691.017,316.814L682.689,318.903C680.411,319.476 678.134,320.048 676.425,320.477C674.731,320.957 673.601,321.277 673.601,321.277C673.527,321.298 673.449,321.248 673.426,321.166L672.933,319.367L671.622,319.737C671.552,319.757 671.474,319.711 671.451,319.63L664.524,294.607C664.524,294.607 661.569,295.444 658.613,296.281C657.136,296.7 655.659,297.119 654.55,297.433C653.995,297.586 653.536,297.724 653.216,297.83C652.896,297.931 652.713,297.989 652.713,297.989L655.389,306.856L652.031,307.917L659.833,333.149C659.833,333.149 655.268,334.591 650.704,336.034C648.423,336.759 646.18,337.598 644.481,338.177C642.786,338.77 641.656,339.165 641.656,339.165L645.087,348.912C645.087,348.912 642.751,349.728 640.415,350.545C639.242,350.939 638.087,351.383 637.222,351.722C636.357,352.055 635.779,352.277 635.779,352.277L618.209,305.433L614.194,306.976L618.985,319.445C618.985,319.445 616.116,320.548 613.247,321.652C612.532,321.931 611.811,322.197 611.144,322.47L607.557,323.977L614.713,341.364L608.486,343.98L622.517,376.815C622.552,376.896 622.523,376.983 622.454,377.012C622.454,377.012 621.644,377.352 620.429,377.862C619.823,378.119 619.11,378.406 618.356,378.738C617.608,379.081 616.809,379.447 616.011,379.812C612.816,381.273 609.621,382.733 609.621,382.733C609.554,382.763 609.472,382.724 609.435,382.644L608.72,381.105L609.514,382.883L607.761,381.542L607.617,381.608C607.493,381.665 607.335,381.588 607.269,381.446L607.065,381.01L606.855,380.852L606.097,378.939L592.361,349.576L590.996,349.168L591.244,349.042L579.758,324.587L577.441,325.647C577.187,325.772 577.018,325.855 577.018,325.855L603.473,381.36C603.473,381.36 596.771,384.688 590.069,388.017C586.768,389.78 583.468,391.542 580.992,392.865C579.753,393.524 578.721,394.074 577.999,394.459C577.288,394.865 576.881,395.096 576.881,395.096L576.022,393.553L574.806,394.253L571.072,387.594C571.072,387.594 567.562,389.61 564.052,391.627L560.287,393.786L557.091,395.759C557.074,395.769 557.058,395.77 557.042,395.775L557.044,395.823L554.73,395.723L554.769,395.654C554.735,395.643 554.701,395.619 554.679,395.583L543.607,377.468L542.36,378.237L541.212,376.372L539.022,377.722L534.828,370.981C534.828,370.981 534.011,371.485 532.785,372.241C531.564,373.006 529.908,373.978 528.32,375.059C525.115,377.175 521.91,379.29 521.91,379.29C521.866,379.32 521.805,379.305 521.773,379.257L521.358,378.632L521.215,378.726C527.939,388.853 534.524,398.773 540.277,407.439L553.641,427.561C553.641,427.561 551.469,428.992 549.298,430.422C548.216,431.144 547.169,431.918 546.368,432.475C545.572,433.039 545.041,433.414 545.041,433.414L544.926,433.25L497.614,365.508L496.114,366.567C496.037,366.62 495.933,366.6 495.88,366.524L488.004,355.329L485.826,356.867L501.023,378.254C501.077,378.33 501.061,378.426 500.993,378.474L497.01,381.288L516.155,407.7L516.817,407.232C516.873,407.192 516.954,407.211 516.996,407.27L517.143,407.474C517.187,407.536 517.179,407.618 517.124,407.657L516.632,408.004L516.523,408.283L523.623,418.047L523.488,418.143L523.519,418.328C523.519,418.328 522.846,418.342 521.834,418.363C520.834,418.409 519.501,418.47 518.167,418.531C515.482,418.665 512.796,418.799 512.796,418.799C512.796,418.799 511.927,421.346 511.059,423.892C510.633,425.157 510.208,426.423 509.889,427.372C509.575,428.322 509.384,428.976 509.384,428.976L509.215,428.894L509.086,428.999L501.657,419.484L501.359,419.511L501.025,419.78C500.972,419.823 500.891,419.809 500.844,419.748L500.69,419.551C500.644,419.494 500.649,419.412 500.702,419.368L501.211,418.959L499.41,416.659L497.825,417.935L503.591,425.238C503.644,425.304 503.64,425.396 503.582,425.443C503.582,425.443 498.931,429.182 494.281,432.923C489.736,436.79 485.19,440.658 485.19,440.658L501.528,459.426C501.528,459.426 501.279,459.638 500.843,460.008C500.417,460.39 499.809,460.935 499.08,461.589C497.621,462.898 495.676,464.642 493.731,466.387C491.763,468.106 489.893,469.932 488.463,471.27C487.038,472.614 486.089,473.51 486.089,473.51L466.841,453.281C466.841,453.281 466.225,453.862 465.3,454.734C464.838,455.17 464.299,455.678 463.721,456.224C463.159,456.784 462.557,457.381 461.957,457.978C459.552,460.364 457.148,462.751 457.148,462.751L432.859,438.577C432.859,438.577 432.359,439.074 431.609,439.819C431.234,440.192 430.797,440.627 430.329,441.093L424.994,446.661L443.212,464.037L441.503,465.821L443.438,467.649L441.425,469.754L443.487,471.679C443.487,471.679 440.189,475.302 436.89,478.925C435.221,480.717 433.637,482.587 432.433,483.974C431.231,485.363 430.429,486.289 430.429,486.289L414.363,472.435C414.363,472.435 413.05,473.951 411.738,475.467C411.076,476.22 410.429,476.985 409.957,477.571C409.48,478.152 409.161,478.539 409.161,478.539L447.274,510.388C447.274,510.388 445.592,512.433 443.91,514.479C443.068,515.501 442.225,516.523 441.594,517.29C441.274,517.67 441.024,517.999 440.845,518.227C440.667,518.456 440.565,518.586 440.565,518.586L392.026,479.862L390.485,481.831L448.982,528.048C448.982,528.048 447.001,530.583 445.019,533.117C444.012,534.372 443.073,535.677 442.352,536.644C441.634,537.614 441.155,538.259 441.155,538.259L370.968,485.971L368.58,488.253L381.255,497.578C381.255,497.578 379.999,499.272 378.742,500.966C377.526,502.689 376.309,504.412 376.309,504.412L375.697,503.977L375.957,504.171L375.849,504.316L375.912,504.495L372.758,505.438L360.143,496.57L359.948,496.767L374.498,506.984C374.498,506.984 373.284,508.708 372.07,510.433C371.459,511.293 370.858,512.159 370.426,512.822C369.987,513.48 369.694,513.918 369.694,513.918L369.073,513.497L369.336,513.684L369.232,513.832L369.299,514.009L366.173,515.025L352.986,506.183L352.876,506.438L367.948,516.533L363.998,522.452C363.572,523.119 363.288,523.563 363.288,523.563L362.483,523.042L362.923,523.34L362.823,523.491L362.893,523.667L359.796,524.756L348.141,517.308L348.035,517.563L361.603,526.224L360.392,528.139L376.89,538.57C376.89,538.57 375.747,540.376 374.605,542.184C374.034,543.087 373.456,543.987 373.054,544.68C372.642,545.368 372.368,545.827 372.368,545.827L412.252,570.109C412.252,570.109 412.083,573.252 411.915,576.395C411.838,577.953 411.761,579.512 411.704,580.68C411.673,581.857 411.652,582.641 411.652,582.641C411.652,582.641 408.985,584.377 406.318,586.114C404.978,586.996 403.637,587.878 402.632,588.539C401.646,589.219 400.99,589.673 400.99,589.673L338.131,555.52L338.091,555.594L365.384,570.417C365.384,570.417 363.722,573.534 362.061,576.65C361.224,578.205 360.398,579.766 359.818,580.957C359.224,582.14 358.828,582.93 358.828,582.93L347.786,577.331L346.667,579.559L385.357,598.942C385.357,598.942 384.162,601.318 382.967,603.694C381.834,606.1 380.7,608.506 380.7,608.506L341.582,590.004L340.517,592.259L346.127,594.879L346.051,595.04L346.156,595.197C346.156,595.197 345.536,595.53 344.452,596.113C343.369,596.699 341.802,597.532 339.985,598.577C338.148,599.628 336.005,600.855 333.709,602.17C331.422,603.508 328.905,604.924 326.506,606.416C324.075,607.918 321.644,609.42 319.366,610.828C317.082,612.257 314.92,613.599 313.139,614.79C309.527,617.183 307.12,618.778 307.12,618.778L311.634,620.506L310.579,623.242L319.27,626.513C319.27,626.513 319.156,626.809 318.957,627.327C318.757,627.846 318.466,628.584 318.152,629.483C317.511,631.276 316.654,633.667 315.798,636.058C314.941,638.448 314.076,640.836 313.5,642.651C312.901,644.459 312.502,645.664 312.502,645.664L303.691,642.734L302.766,645.528L288.012,640.713C288.012,640.713 287.782,641.411 287.378,642.632C287.177,643.243 286.932,643.985 286.651,644.836C286.39,645.693 286.095,646.659 285.773,647.714C284.497,651.937 282.723,657.545 281.201,663.226C280.427,666.062 279.592,668.882 278.921,671.556C278.244,674.228 277.614,676.723 277.073,678.86C276.54,681 276.065,682.776 275.797,684.033C275.511,685.288 275.347,686.004 275.347,686.004L305.962,693.161C306.036,693.179 306.088,693.249 306.072,693.317C306.072,693.317 305.017,697.976 303.962,702.634C303.014,707.316 302.067,711.998 302.067,711.998C302.052,712.07 301.977,712.113 301.901,712.098L287.563,709.307C287.563,709.307 287.27,710.703 287.007,712.106C286.757,713.511 286.507,714.916 286.507,714.916C286.492,715.002 286.407,715.06 286.317,715.043L259.756,710.176L247.744,708.037C247.744,708.037 247.907,707.127 248.23,705.363C248.538,703.599 249.095,700.999 249.773,697.598C250.118,695.899 250.502,694.002 250.926,691.914C251.353,689.826 251.898,687.564 252.445,685.111C253.006,682.661 253.609,680.027 254.253,677.217C254.958,674.423 255.708,671.453 256.499,668.314C259.75,655.786 264.061,640.654 269.979,623.611C275.89,606.572 283.409,587.625 292.89,567.539C297.566,557.464 302.913,547.199 308.592,536.657C310.065,534.05 311.548,531.42 313.045,528.77C313.795,527.446 314.547,526.116 315.303,524.781C316.088,523.463 316.875,522.14 317.665,520.811C319.253,518.158 320.853,515.485 322.465,512.793C324.139,510.139 325.825,507.466 327.522,504.774C328.373,503.43 329.228,502.081 330.085,500.728C330.972,499.395 331.864,498.058 332.758,496.716C334.552,494.037 336.358,491.341 338.175,488.628C341.949,483.298 345.674,477.834 349.71,472.508C350.706,471.166 351.704,469.822 352.706,468.473C353.702,467.121 354.711,465.772 355.76,464.45C357.839,461.79 359.928,459.116 362.027,456.43C363.065,455.077 364.163,453.768 365.248,452.443C366.336,451.121 367.425,449.795 368.518,448.466C369.611,447.138 370.707,445.807 371.806,444.474C372.916,443.15 374.062,441.851 375.192,440.536C393.249,419.453 413.503,399.051 435.518,380.04C457.588,361.12 481.287,343.3 506.463,327.71C556.624,296.219 611.948,273.079 665.742,259.392C692.638,252.506 719.112,247.784 744.386,244.952C769.671,242.174 793.737,241.23 815.92,241.559C818.692,241.621 821.436,241.682 824.15,241.742C825.507,241.774 826.857,241.805 828.199,241.836C829.54,241.879 830.872,241.964 832.198,242.026C834.849,242.163 837.469,242.298 840.057,242.432C842.645,242.582 845.205,242.663 847.723,242.897C852.761,243.309 857.67,243.711 862.443,244.101C867.201,244.629 871.824,245.141 876.303,245.638C877.422,245.77 878.535,245.875 879.633,246.026C880.731,246.18 881.82,246.332 882.899,246.483C885.059,246.787 887.18,247.086 889.265,247.38C891.35,247.675 893.397,247.966 895.405,248.251C897.408,248.568 899.368,248.918 901.291,249.242C905.134,249.903 908.822,250.536 912.345,251.142C915.85,251.846 919.193,252.518 922.366,253.155C923.951,253.476 925.495,253.789 926.994,254.093C927.744,254.247 928.482,254.399 929.21,254.548C929.935,254.716 930.647,254.881 931.349,255.044C934.157,255.696 936.788,256.308 939.237,256.877C941.684,257.454 943.953,257.966 946.021,258.478C948.082,259.021 949.955,259.514 951.632,259.956C958.336,261.732 961.911,262.68 961.911,262.68L954.86,287.832C940.073,286.328 925.06,285.557 909.868,285.557C893.242,285.557 876.831,286.481 860.65,288.282L860.353,288.249C857.751,287.924 855.132,287.775 852.56,287.547C849.987,287.338 847.456,287.133 845.006,286.933C842.558,286.704 840.182,286.619 837.932,286.495C835.682,286.378 833.554,286.268 831.59,286.167C829.626,286.075 827.826,285.95 826.229,285.913L818.488,285.74L818.873,267.265C818.873,267.265 816.849,267.221 814.826,267.176C813.814,267.155 812.802,267.133 812.043,267.116C811.664,267.105 811.348,267.106 811.126,267.109C810.905,267.111 810.778,267.111 810.778,267.111L810.741,273.299L804.938,273.34L805.055,298.128C796.583,300.2 788.207,302.517 779.933,305.072C778.759,305.144 777.604,305.226 776.484,305.301C774.036,305.464 771.751,305.616 769.793,305.746C767.836,305.885 766.201,305.962 765.063,306.094C763.924,306.204 763.272,306.267 763.272,306.267L760.575,275.356L755.592,275.836L759.095,312.085C754.214,313.865 749.373,315.73 744.576,317.676Z" style="fill:rgb(255,0,0);fill-rule:nonzero;"/>
                    </g>
                    <path d="M269.491,1404.07L281.514,1391.86L308.26,1364.94C308.351,1364.85 308.351,1364.71 308.264,1364.62C308.264,1364.62 306.815,1363.24 305.428,1361.79C304.027,1360.36 302.626,1358.92 302.626,1358.92L317.254,1344.53C317.331,1344.45 317.341,1344.33 317.269,1344.25C317.269,1344.25 316.097,1343.05 314.339,1341.25C312.596,1339.44 310.202,1337.09 307.927,1334.62C303.354,1329.7 298.781,1324.79 298.781,1324.79C298.713,1324.72 298.592,1324.73 298.512,1324.8L265.893,1354.59C265.893,1354.59 265.717,1354.4 265.388,1354.04C265.058,1353.69 264.572,1353.17 263.977,1352.49C262.777,1351.14 261.063,1349.21 259.006,1346.89C256.954,1344.57 254.56,1341.87 251.995,1338.96C249.494,1336.01 246.827,1332.86 244.159,1329.7C242.829,1328.12 241.499,1326.54 240.19,1324.99C238.914,1323.4 237.658,1321.85 236.443,1320.34C234.015,1317.32 231.748,1314.51 229.805,1312.09C227.868,1309.68 226.333,1307.6 225.222,1306.17C224.122,1304.74 223.494,1303.92 223.494,1303.92L240.794,1290.64L238.278,1287.36L248.673,1279.48C248.673,1279.48 247.588,1278.06 245.96,1275.94C244.38,1273.78 242.273,1270.9 240.167,1268.02C238.077,1265.13 235.936,1262.28 234.414,1260.07C232.889,1257.88 231.873,1256.41 231.873,1256.41L221.181,1263.88L218.834,1260.5L213.247,1264.36C213.247,1264.36 213.302,1260.31 213.385,1254.23C213.584,1248.12 213.881,1240.05 214.294,1232.09C214.818,1224.04 215.397,1216.13 215.906,1210.24C216.506,1204.33 216.906,1200.39 216.906,1200.39L216.641,1200.38L216.514,1200.17L209.023,1204.59L207.24,1201.58L259.74,1170.91C259.74,1170.91 259.264,1170.11 258.55,1168.9C257.821,1167.7 256.897,1166.08 255.996,1164.44C254.172,1161.17 252.349,1157.91 252.349,1157.91L199.171,1187.39L197.461,1184.33L212.715,1175.97C212.715,1175.97 212.114,1174.88 211.212,1173.26C210.344,1171.61 209.186,1169.42 208.029,1167.22C205.714,1162.83 203.4,1158.44 203.4,1158.44L164.555,1178.33L164.502,1178.22L253.981,1132.43C253.981,1132.43 254.046,1127.92 254.111,1123.41C254.151,1121.18 254.191,1118.94 254.221,1117.27C254.237,1116.43 254.251,1115.74 254.261,1115.25C254.279,1114.76 254.289,1114.48 254.289,1114.48C254.289,1114.48 250.784,1111.85 247.279,1109.21C245.515,1107.87 243.752,1106.53 242.429,1105.53C241.099,1104.52 240.227,1103.84 240.227,1103.84L180.428,1130.83L175.612,1119.82L150.429,1130.68L149.154,1127.76L128.347,1136.63L128.134,1136.3L146.015,1128.7C146.015,1128.7 146.311,1127.58 146.607,1126.47C146.922,1125.35 147.237,1124.23 147.237,1124.23L146.98,1124.17L146.889,1123.93L146.195,1124.21L147.437,1123.69L142.955,1112.72L119.292,1122.19L119.082,1121.86L139.798,1113.58L141.085,1109.15L140.83,1109.09L140.744,1108.85L140.318,1109.01L141.299,1108.62L137.085,1097.54L113.695,1106.31L113.619,1105.93L133.909,1098.33L135.298,1093.93L135.041,1093.87L134.956,1093.63L134.526,1093.77L135.515,1093.41C135.515,1093.41 135.239,1092.72 134.87,1091.67C134.5,1090.63 134.008,1089.23 133.515,1087.83C132.53,1085.04 131.546,1082.24 131.546,1082.24L110.678,1089.55L109.9,1084.97L226.214,1045.05C226.214,1045.05 225.838,1043.98 225.274,1042.38C224.752,1040.77 224.057,1038.62 223.361,1036.47C221.963,1032.18 220.566,1027.88 220.566,1027.88L120.565,1059.06C120.565,1059.06 120.297,1058.22 120.052,1057.38C119.801,1056.54 119.551,1055.69 119.551,1055.69L202.965,1030.12C202.965,1030.12 201.905,1026.55 200.845,1022.99C200.313,1021.21 199.782,1019.42 199.383,1018.09C199.18,1017.42 199.019,1016.86 198.918,1016.47C198.812,1016.07 198.752,1015.85 198.752,1015.85L131.582,1034.78L128.638,1023.9L157.451,1016.26C157.451,1016.26 157.001,1014.6 156.326,1012.11C155.677,1009.61 154.89,1006.26 154.065,1002.92C153.258,999.578 152.412,996.242 151.84,993.725C151.292,991.203 150.926,989.522 150.926,989.522L147.058,990.385L146.188,986.387L142.531,987.18L141.792,983.788L107.187,991.117C107.187,991.117 106.976,990.149 106.661,988.697C106.503,987.971 106.319,987.124 106.122,986.216C105.947,985.304 105.76,984.331 105.572,983.358C104.826,979.466 104.08,975.574 104.08,975.574L151.387,966.611C151.387,966.611 151.163,965.443 150.827,963.69C150.5,961.936 150.012,959.606 149.652,957.254C148.875,952.559 148.097,947.864 148.097,947.864L186.83,941.625C186.83,941.625 186.529,939.817 186.078,937.106C185.663,934.389 185.185,930.753 184.668,927.124C184.168,923.492 183.612,919.868 183.343,917.13C183.032,914.397 182.825,912.576 182.825,912.576L148.094,916.585C148.094,916.585 147.856,914.504 147.499,911.382C147.333,909.82 147.082,908.003 146.916,906.046C146.743,904.089 146.558,902.002 146.373,899.916C146.018,895.741 145.597,891.571 145.384,888.435C145.186,885.298 145.054,883.207 145.054,883.207C145.047,883.103 144.945,883.025 144.826,883.033L131.781,883.9L131.6,881.048L135.696,880.792L135.754,881.708C135.76,881.803 135.851,881.874 135.954,881.868L136.305,881.846C136.413,881.839 136.494,881.757 136.488,881.662L136.45,881.061L136.66,880.694L153.59,879.662L153.575,879.429L153.805,879.298C153.805,879.298 151.488,876.308 149.171,873.319C147.993,871.816 146.903,870.299 146.057,869.159C145.218,868.017 144.658,867.255 144.658,867.255C144.658,867.255 146.66,864.037 148.661,860.818C150.663,857.638 152.664,854.458 152.664,854.458L152.422,854.348L152.415,854.115L135.459,854.567L135.222,854.219L135.212,853.373C135.211,853.277 135.123,853.203 135.015,853.206L134.664,853.214C134.561,853.216 134.476,853.295 134.477,853.391L134.491,854.53L88.671,855.684L88.583,848.837C88.582,848.72 88.483,848.625 88.353,848.627L51.493,849.212L51.445,845.469L70.676,845.254C70.806,845.253 70.913,845.147 70.911,845.017L70.879,842.438L186.973,841.528L187.254,841.526C187.254,841.526 187.242,840.611 187.223,839.238C187.196,837.866 187.175,836.035 187.219,834.205C187.267,830.545 187.314,826.885 187.314,826.885L187.033,826.881C178.053,826.744 166.457,826.567 153.379,826.368C138.766,826.142 122.039,825.884 104.96,825.62L104.963,825.381L106.017,825.397C106.098,825.398 106.164,825.339 106.165,825.265C106.165,825.265 106.182,823.916 106.208,821.893C106.226,819.87 106.258,817.173 106.387,814.478C106.592,809.087 106.797,803.695 106.797,803.695L117.941,804.191L118.078,800.579L121.151,800.731C121.151,800.731 121.173,800.217 121.195,799.703C121.228,799.189 121.26,798.676 121.26,798.676L151.049,800.236C151.108,800.239 151.164,800.219 151.204,800.188L151.252,800.289L153.249,797.686L153.192,797.65C153.199,797.627 153.211,797.609 153.213,797.581C153.213,797.581 153.573,791.9 153.932,786.22C154.008,784.799 154.118,783.38 154.249,782.053C154.367,780.724 154.478,779.485 154.573,778.422C154.762,776.296 154.888,774.879 154.888,774.879L165.572,775.838L165.746,773.873L168.217,774.102C168.217,774.102 168.455,771.482 168.812,767.552C169.26,763.632 169.858,758.405 170.456,753.178C171.097,747.957 171.895,742.757 172.418,738.847C172.932,734.935 173.389,732.345 173.389,732.345L88.037,718.98L88.729,714.795L126.2,720.879L126.152,721.268L127.698,720.007L172.646,727.376L175.467,728.014L175.815,727.896L176.482,728.005C176.701,728.041 176.913,727.919 176.944,727.73L176.98,727.51L179.914,726.538L177.222,726.047L179.574,726.44C179.697,726.46 179.806,726.396 179.823,726.293C179.823,726.293 180.024,725.075 180.326,723.248C180.629,721.421 181.007,718.981 181.501,716.562C182.43,711.713 183.36,706.864 183.36,706.864C183.38,706.762 183.3,706.658 183.178,706.634L133.969,696.859C133.969,696.859 134.399,694.525 134.878,692.202C135.383,689.884 135.888,687.566 135.888,687.566L110.047,682.072C110.047,682.072 110.966,677.852 111.884,673.633C112.347,671.524 112.787,669.41 113.191,667.841C113.575,666.268 113.83,665.219 113.83,665.219L95.57,660.886L97.002,655.014L165.266,671.792C165.266,671.792 166.089,668.414 166.912,665.035C167.816,661.678 168.72,658.32 168.72,658.32L154.695,654.568C154.695,654.568 155.134,652.945 155.793,650.51C156.474,648.081 157.275,644.813 158.274,641.601C160.192,635.154 162.109,628.707 162.109,628.707L126.658,617.742C126.658,617.742 127.002,616.554 127.395,615.38C127.777,614.203 128.158,613.027 128.158,613.027L115.751,609.097C115.751,609.097 117.084,604.992 118.416,600.886C119.083,598.834 119.75,596.781 120.251,595.242C120.787,593.715 121.145,592.697 121.145,592.697L155.659,604.513C155.772,604.552 155.888,604.498 155.922,604.401L156.558,602.595L159.037,603.452C159.149,603.491 159.271,603.44 159.306,603.339C159.306,603.339 161.504,597.117 163.702,590.895C166.047,584.727 168.392,578.558 168.392,578.558C168.43,578.458 168.371,578.34 168.26,578.297L138.6,566.769C138.6,566.769 139.208,565.172 139.816,563.575C140.459,561.992 141.102,560.409 141.102,560.409C141.148,560.296 141.087,560.173 140.972,560.127L124.925,553.715L125.609,552.039L168.903,569.46C168.903,569.46 171.101,564.081 173.298,558.702C175.617,553.374 177.936,548.046 177.936,548.046L162.371,541.184L164.415,536.513L179.941,543.488C179.941,543.488 180.502,542.147 181.44,540.179C182.362,538.204 183.592,535.57 184.822,532.936C186.056,530.304 187.29,527.673 188.215,525.699C189.185,523.747 189.832,522.445 189.832,522.445L163.224,509.433L169.563,496.706L227.702,526.531C227.702,526.531 230.096,521.997 232.489,517.463C233.698,515.202 234.851,512.912 235.804,511.242C236.743,509.564 237.369,508.445 237.369,508.445L171.67,472.193L175.103,466.051L213.076,487.469C213.076,487.469 213.524,486.667 214.309,485.263C215.087,483.855 216.207,481.849 217.63,479.486C219.033,477.112 220.671,474.343 222.425,471.376C223.31,469.897 224.19,468.349 225.147,466.812C226.105,465.277 227.079,463.718 228.053,462.158C230,459.039 231.946,455.92 233.772,452.996C235.667,450.117 237.436,447.43 238.952,445.126C240.468,442.823 241.731,440.903 242.615,439.559C243.053,438.884 243.408,438.361 243.657,438.01C243.902,437.656 244.033,437.467 244.033,437.467L207.958,412.988L212.603,406.285L205.462,401.326C205.462,401.326 207.083,398.989 208.704,396.651C210.304,394.299 212,392.014 212,392.014L233.104,407.138C233.104,407.138 234.189,405.649 236.089,403.045C237.039,401.743 238.192,400.161 239.515,398.347C240.833,396.529 242.324,394.482 244.024,392.302C250.712,383.504 259.76,371.863 269.33,360.654C271.722,357.852 274.058,355.001 276.461,352.285C278.868,349.572 281.237,346.902 283.529,344.319C284.675,343.027 285.803,341.757 286.906,340.514C288.037,339.296 289.143,338.104 290.22,336.944C292.377,334.627 294.417,332.436 296.3,330.413C297.242,329.402 298.144,328.433 299.002,327.512C299.88,326.61 300.714,325.754 301.497,324.949C303.065,323.343 304.433,321.942 305.559,320.789C307.811,318.483 309.098,317.165 309.098,317.165L331.03,338.894C331.03,338.894 331.906,337.997 333.219,336.651C334.564,335.337 336.357,333.584 338.15,331.832C341.738,328.328 345.325,324.825 345.325,324.825L318.139,296.328L320.608,294.021L341.655,316.283C341.655,316.283 345.364,312.83 349.073,309.377C350,308.514 350.928,307.65 351.797,306.841C352.684,306.051 353.511,305.313 354.221,304.681C355.642,303.42 356.59,302.579 356.59,302.579L336.178,279.734L338.728,277.471L353.244,293.866C353.244,293.866 354.201,293.016 355.638,291.742C357.081,290.476 358.968,288.744 360.941,287.111C364.851,283.805 368.761,280.499 368.761,280.499L320.405,222.686C320.405,222.686 316.444,226.048 309.016,232.353C305.373,235.586 300.879,239.574 295.597,244.262C293.01,246.666 290.23,249.249 287.264,252.006C284.303,254.768 281.132,257.676 277.905,260.879C274.654,264.056 271.228,267.404 267.635,270.915C264.125,274.508 260.452,278.268 256.623,282.188C249.054,290.112 240.961,298.776 232.619,308.306C215.902,327.328 197.869,349.552 179.871,375.024C177.649,378.227 175.405,381.464 173.138,384.733C172.009,386.371 170.875,388.017 169.736,389.671C168.63,391.348 167.519,393.033 166.403,394.726C164.174,398.115 161.925,401.535 159.655,404.986C157.463,408.488 155.252,412.021 153.022,415.584C151.91,417.368 150.794,419.159 149.673,420.957C148.561,422.761 147.498,424.606 146.403,426.44C144.229,430.12 142.038,433.829 139.83,437.566C137.675,441.334 135.561,445.165 133.405,449.007C132.331,450.931 131.254,452.862 130.173,454.799C129.133,456.759 128.089,458.726 127.042,460.7C124.961,464.655 122.865,468.636 120.756,472.644C118.739,476.699 116.709,480.781 114.667,484.887C112.591,488.977 110.653,493.165 108.692,497.372C107.711,499.475 106.727,501.584 105.74,503.699C104.747,505.811 103.763,507.934 102.838,510.092C100.957,514.392 99.066,518.716 97.165,523.062C95.272,527.411 93.533,531.852 91.701,536.279C90.797,538.497 89.89,540.72 88.982,542.949C88.123,545.197 87.262,547.451 86.399,549.709C84.697,554.235 82.915,558.754 81.27,563.346C74.607,581.685 68.582,600.595 63.086,619.906C57.638,639.234 52.975,659.027 48.899,679.096C40.901,719.265 35.844,760.676 34.131,802.177C33.159,822.928 33.212,843.687 33.879,864.358C34.497,885.033 36.109,905.607 38.348,925.945C38.639,928.487 38.93,931.026 39.22,933.562C39.513,936.098 39.785,938.634 40.161,941.155C40.867,946.202 41.572,951.238 42.275,956.261C43.003,961.281 43.895,966.264 44.701,971.245C45.12,973.733 45.538,976.218 45.956,978.699C46.428,981.171 46.899,983.639 47.369,986.104C47.842,988.568 48.314,991.029 48.785,993.485C49.25,995.943 49.724,998.395 50.273,1000.83C51.334,1005.7 52.392,1010.56 53.446,1015.4C54.533,1020.23 55.758,1025.01 56.908,1029.79C57.496,1032.18 58.084,1034.56 58.67,1036.94C59.308,1039.3 59.945,1041.66 60.58,1044.02C61.218,1046.37 61.854,1048.72 62.488,1051.06C63.126,1053.41 63.741,1055.75 64.451,1058.06C65.83,1062.7 67.202,1067.31 68.568,1071.9C69.232,1074.21 69.983,1076.47 70.717,1078.74C71.453,1081.01 72.187,1083.27 72.919,1085.53C73.653,1087.79 74.385,1090.04 75.115,1092.28C75.857,1094.52 76.665,1096.73 77.435,1098.95C79,1103.37 80.557,1107.78 82.104,1112.15C83.752,1116.49 85.391,1120.81 87.02,1125.1C88.614,1129.4 90.36,1133.61 92.073,1137.81C93.808,1141.99 95.441,1146.19 97.238,1150.28C111.351,1183.14 126.7,1213.33 142.543,1240.2C158.318,1267.12 174.309,1290.86 189.357,1311.24C204.402,1331.63 218.5,1348.65 230.416,1362.38C236.448,1369.18 241.802,1375.29 246.667,1380.41C249.074,1382.99 251.302,1385.38 253.342,1387.58C255.388,1389.76 257.317,1391.68 259.009,1393.43C262.413,1396.91 265.023,1399.59 266.782,1401.38C267.656,1402.29 268.344,1402.95 268.8,1403.4C269.259,1403.85 269.491,1404.07 269.491,1404.07Z" style="fill:rgb(255,0,0);fill-rule:nonzero;"/>
                    <g transform="matrix(1.08086,0.897739,-0.897739,1.08086,688.26,-765.013)">
                        <path d="M1342.42,809.109L1364.98,809.047L1377.18,808.952C1377.18,808.952 1377.14,812.65 1377.07,819.591C1377.04,821.324 1377.05,823.261 1376.98,825.39C1376.9,827.519 1376.81,829.843 1376.72,832.354C1376.62,834.865 1376.54,837.566 1376.39,840.443C1376.21,843.32 1376.01,846.375 1375.81,849.604C1375.7,851.219 1375.59,852.876 1375.48,854.576C1375.35,856.274 1375.18,858.012 1375.02,859.793C1374.69,863.352 1374.37,867.08 1373.98,870.96C1373.52,874.833 1373.05,878.863 1372.55,883.045C1372.32,885.138 1372.01,887.258 1371.69,889.415C1371.38,891.573 1371.06,893.767 1370.73,895.997C1368.04,913.817 1364.16,933.812 1358.54,955.286C1352.92,976.75 1345.66,999.727 1336.12,1023.32C1326.6,1046.91 1315.11,1071.24 1301.17,1095.26C1299.42,1098.26 1297.7,1101.3 1295.89,1104.29C1294.06,1107.27 1292.21,1110.26 1290.36,1113.26C1288.54,1116.28 1286.58,1119.23 1284.63,1122.19C1282.67,1125.15 1280.76,1128.16 1278.73,1131.1C1274.63,1136.95 1270.6,1142.9 1266.24,1148.67C1265.16,1150.12 1264.09,1151.57 1263.01,1153.03C1261.93,1154.48 1260.86,1155.94 1259.72,1157.36C1257.48,1160.22 1255.24,1163.08 1252.99,1165.95C1243.84,1177.29 1234.33,1188.5 1224.2,1199.21C1219.24,1204.66 1213.97,1209.84 1208.8,1215.12C1206.17,1217.72 1203.48,1220.25 1200.82,1222.81L1196.81,1226.65C1195.47,1227.92 1194.08,1229.14 1192.72,1230.39L1184.5,1237.82C1181.72,1240.25 1178.9,1242.63 1176.1,1245.03L1171.89,1248.62L1167.6,1252.12C1164.73,1254.42 1161.89,1256.78 1158.99,1259.03C1147.41,1268.12 1135.48,1276.68 1123.4,1284.81C1120.35,1286.81 1117.31,1288.8 1114.28,1290.78C1111.24,1292.76 1108.13,1294.62 1105.07,1296.53C1103.53,1297.48 1102,1298.42 1100.46,1299.37C1098.91,1300.28 1097.36,1301.18 1095.81,1302.09C1094.26,1303 1092.71,1303.9 1091.16,1304.8C1089.62,1305.71 1088.07,1306.61 1086.5,1307.46C1083.38,1309.19 1080.26,1310.91 1077.15,1312.62C1074.03,1314.31 1070.87,1315.91 1067.75,1317.54C1066.18,1318.35 1064.62,1319.15 1063.06,1319.96C1061.48,1320.73 1059.9,1321.5 1058.33,1322.27C1056.76,1323.04 1055.19,1323.8 1053.62,1324.57C1052.06,1325.33 1050.5,1326.1 1048.91,1326.81C1045.75,1328.25 1042.61,1329.69 1039.48,1331.12C1037.92,1331.85 1036.34,1332.51 1034.76,1333.18C1033.19,1333.86 1031.62,1334.53 1030.05,1335.2C1028.48,1335.87 1026.91,1336.54 1025.36,1337.2C1023.78,1337.84 1022.21,1338.46 1020.64,1339.1C1017.5,1340.34 1014.39,1341.6 1011.27,1342.81C1005,1345.12 998.829,1347.48 992.629,1349.53C991.084,1350.06 989.545,1350.59 988.009,1351.11C987.241,1351.38 986.475,1351.64 985.709,1351.9C984.938,1352.14 984.168,1352.39 983.4,1352.63C980.325,1353.6 977.269,1354.56 974.234,1355.52C962.046,1359.17 950.11,1362.48 938.44,1365.15C932.626,1366.58 926.857,1367.74 921.206,1368.94C918.386,1369.56 915.563,1370.03 912.781,1370.56C909.995,1371.07 907.241,1371.61 904.506,1372.07C882.615,1375.79 862.355,1377.95 844.363,1379.09C826.367,1380.23 810.638,1380.41 797.698,1380.18C794.463,1380.14 791.403,1380 788.523,1379.92C785.643,1379.81 782.941,1379.77 780.433,1379.6C775.415,1379.31 771.144,1379.1 767.686,1378.85C760.776,1378.29 757.089,1378 757.089,1378L761.865,1324.57C761.865,1324.57 765.498,1324.86 769.13,1325.15C770.947,1325.3 772.762,1325.46 774.128,1325.52C775.492,1325.6 776.402,1325.65 776.402,1325.65L775.451,1341.2L777.874,1341.34L779.105,1319.57C779.105,1319.57 780.005,1319.62 781.355,1319.7C782.706,1319.76 784.505,1319.9 786.308,1319.95C789.912,1320.07 793.517,1320.19 793.517,1320.19L792.899,1341.98L795.302,1342.06L795.971,1314.04C795.971,1314.04 796.194,1314.05 796.584,1314.06C796.974,1314.07 797.531,1314.1 798.201,1314.1C799.539,1314.11 801.323,1314.12 803.108,1314.14C804.893,1314.15 806.677,1314.17 808.015,1314.18C808.684,1314.19 809.242,1314.19 809.632,1314.19C810.023,1314.19 810.246,1314.19 810.246,1314.19L810.341,1336.16C810.341,1336.16 811.652,1336.14 813.946,1336.11C816.24,1336.06 819.518,1336.05 823.45,1335.93C825.415,1335.86 827.544,1335.78 829.796,1335.69C832.046,1335.58 834.424,1335.55 836.876,1335.36C841.782,1335.03 847.023,1334.79 852.243,1334.28C854.856,1334.05 857.468,1333.83 860.04,1333.6C862.605,1333.32 865.13,1333.04 867.574,1332.77C872.467,1332.27 877.008,1331.6 880.907,1331.08C882.854,1330.8 884.646,1330.59 886.222,1330.33C887.8,1330.08 889.176,1329.86 890.309,1329.68C892.574,1329.31 893.869,1329.11 893.869,1329.11L896.88,1347.34C896.88,1347.34 898.879,1347.02 900.879,1346.69C902.87,1346.33 904.861,1345.96 904.861,1345.96L903.761,1339.87L909.469,1338.81L903.626,1308.34C903.626,1308.34 904.269,1308.22 905.395,1308.01C906.524,1307.82 908.121,1307.46 910.042,1307.06C913.882,1306.25 919.013,1305.22 924.095,1303.96C926.638,1303.35 929.194,1302.78 931.569,1302.17C933.942,1301.55 936.157,1300.97 938.055,1300.47C939.952,1299.97 941.534,1299.56 942.641,1299.26C943.741,1298.95 944.37,1298.77 944.37,1298.77L952.718,1328.65L957.531,1327.26L942.681,1275.96C942.681,1275.96 943.558,1275.71 944.872,1275.33C946.186,1274.95 947.945,1274.47 949.679,1273.9C953.159,1272.8 956.638,1271.7 956.638,1271.7L970.92,1315.96C970.92,1315.96 971.523,1315.77 972.428,1315.49C973.336,1315.21 974.533,1314.8 975.729,1314.39C978.123,1313.57 980.517,1312.75 980.517,1312.75L973.659,1292.82L978.613,1291.12C979.523,1290.79 980.494,1290.43 981.464,1290.07C985.344,1288.64 989.224,1287.2 989.224,1287.2L993.538,1298.52C993.538,1298.52 994.392,1298.21 995.236,1297.88C996.079,1297.55 996.922,1297.21 996.922,1297.21L992.532,1285.93C992.532,1285.93 996.374,1284.4 1000.22,1282.87C1002.14,1282.12 1004.04,1281.28 1005.46,1280.68C1006.89,1280.07 1007.84,1279.66 1007.84,1279.66L1020.89,1310.21L1022.08,1309.7L1017.22,1298.4C1017.18,1298.32 1017.21,1298.23 1017.29,1298.19L1021.77,1296.28L1012.62,1275.56C1012.58,1275.48 1012.61,1275.39 1012.68,1275.36C1012.68,1275.36 1016.96,1273.41 1021.23,1271.46C1022.3,1270.97 1023.36,1270.48 1024.36,1270.03L1029.71,1267.42C1029.78,1267.38 1029.86,1267.42 1029.9,1267.5L1030.72,1269.17L1031.94,1268.58C1032.01,1268.54 1032.09,1268.58 1032.13,1268.65L1043.58,1291.96C1043.58,1291.96 1044.27,1291.62 1045.3,1291.11C1046.33,1290.6 1047.73,1289.96 1049.09,1289.24C1051.81,1287.83 1054.54,1286.41 1054.54,1286.41L1050.27,1278.19L1053.39,1276.57L1041.05,1253.22C1041.05,1253.22 1041.31,1253.09 1041.78,1252.84C1042.24,1252.6 1042.91,1252.27 1043.7,1251.83C1045.27,1250.97 1047.37,1249.81 1049.46,1248.65C1051.55,1247.49 1053.67,1246.37 1055.21,1245.45C1056.76,1244.54 1057.8,1243.94 1057.8,1243.94L1052.62,1235C1052.62,1235 1054.75,1233.75 1056.89,1232.5C1057.96,1231.87 1059.03,1231.25 1059.83,1230.78C1060.62,1230.29 1061.14,1229.96 1061.14,1229.96L1087.08,1272.74L1090.74,1270.48L1083.72,1259.12C1083.72,1259.12 1086.34,1257.5 1088.95,1255.88C1090.26,1255.08 1091.53,1254.21 1092.5,1253.59C1093.47,1252.96 1094.11,1252.54 1094.11,1252.54L1083.86,1236.78L1089.51,1233.08L1069.66,1203.4C1069.61,1203.33 1069.62,1203.24 1069.68,1203.19C1069.68,1203.19 1070.42,1202.73 1071.5,1201.96C1072.59,1201.21 1074.04,1200.21 1075.48,1199.21C1076.93,1198.22 1078.38,1197.22 1079.46,1196.47C1080.01,1196.1 1080.46,1195.78 1080.77,1195.55C1081.08,1195.32 1081.25,1195.19 1081.25,1195.19C1081.31,1195.15 1081.4,1195.17 1081.45,1195.25L1082.44,1196.63L1081.33,1195.02L1083.29,1196L1083.42,1195.91C1083.53,1195.83 1083.7,1195.87 1083.79,1196L1084.07,1196.39L1084.31,1196.51L1085.4,1198.25L1104.32,1224.58L1105.72,1224.71L1105.51,1224.89L1121.3,1246.81L1123.74,1245.03L1087.52,1195.35C1087.52,1195.35 1089.03,1194.25 1091.3,1192.59C1093.57,1190.93 1096.51,1188.61 1099.49,1186.34C1100.24,1185.77 1100.98,1185.2 1101.71,1184.63C1102.44,1184.07 1103.14,1183.49 1103.82,1182.94C1105.19,1181.83 1106.46,1180.8 1107.56,1179.91C1109.74,1178.15 1111.2,1176.97 1111.2,1176.97L1112.33,1178.33C1112.33,1178.33 1112.6,1178.11 1112.87,1177.88C1113.13,1177.65 1113.4,1177.43 1113.4,1177.43L1118.29,1183.29C1118.29,1183.29 1121.37,1180.65 1124.45,1178.02C1125.99,1176.7 1127.54,1175.4 1128.68,1174.39C1129.81,1173.37 1130.56,1172.69 1130.56,1172.69C1130.57,1172.67 1130.59,1172.67 1130.6,1172.66L1130.59,1172.62L1132.88,1172.29L1132.86,1172.37C1132.89,1172.37 1132.93,1172.39 1132.96,1172.42L1147.15,1188.21L1148.23,1187.23L1149.7,1188.86L1151.61,1187.13L1156.96,1192.99C1156.96,1192.99 1157.67,1192.35 1158.74,1191.38C1159.81,1190.42 1161.24,1189.14 1162.61,1187.79C1165.38,1185.14 1168.15,1182.48 1168.15,1182.48C1168.19,1182.44 1168.25,1182.45 1168.29,1182.49L1168.82,1183.03L1168.94,1182.91C1160.49,1174.17 1152.21,1165.61 1144.98,1158.14C1138.5,1151.45 1132.76,1145.52 1128.32,1140.92L1128.18,1140.78C1128.18,1140.78 1128.65,1140.33 1129.35,1139.66C1130.05,1138.98 1131.02,1138.1 1131.91,1137.16C1133.74,1135.31 1135.56,1133.45 1135.56,1133.45L1135.7,1133.59L1194.54,1191.61L1195.83,1190.3C1195.9,1190.23 1196,1190.23 1196.07,1190.3L1205.85,1199.88L1207.72,1197.98L1188.89,1179.71C1188.82,1179.64 1188.82,1179.55 1188.88,1179.49C1188.88,1179.49 1189.73,1178.62 1190.59,1177.75C1191.02,1177.32 1191.44,1176.87 1191.75,1176.54C1192.06,1176.2 1192.27,1175.98 1192.27,1175.98L1168.64,1153.49L1168.09,1154.08C1168.04,1154.13 1167.96,1154.13 1167.91,1154.08L1167.73,1153.91C1167.67,1153.85 1167.66,1153.77 1167.71,1153.72L1168.12,1153.28L1168.17,1152.98L1159.41,1144.67L1159.53,1144.55L1159.46,1144.37C1159.46,1144.37 1162.07,1143.79 1164.68,1143.2C1167.31,1142.59 1169.94,1141.99 1169.94,1141.99C1169.94,1141.99 1170.04,1141.32 1170.19,1140.33C1170.35,1139.33 1170.55,1138.01 1170.72,1136.66C1171.05,1133.99 1171.39,1131.32 1171.39,1131.32L1171.57,1131.37L1171.68,1131.25L1180.72,1139.25L1181.01,1139.17L1181.29,1138.85C1181.34,1138.8 1181.42,1138.8 1181.48,1138.85L1181.67,1139.01C1181.72,1139.06 1181.73,1139.14 1181.69,1139.19L1181.25,1139.68L1183.44,1141.62L1184.79,1140.09L1177.79,1133.96C1177.72,1133.9 1177.71,1133.81 1177.76,1133.76L1181.41,1129.61C1181.82,1129.11 1182.26,1128.6 1182.7,1128.06C1183.6,1126.98 1184.55,1125.84 1185.5,1124.69C1187.4,1122.39 1189.33,1120.12 1190.72,1118.37C1192.1,1116.61 1193.02,1115.44 1193.02,1115.44L1173.52,1099.99C1173.52,1099.99 1174.32,1098.96 1175.53,1097.42C1176.13,1096.65 1176.84,1095.76 1177.59,1094.79C1178.35,1093.84 1179.16,1092.81 1179.92,1091.75C1183.02,1087.56 1186.12,1083.37 1186.12,1083.37L1208.77,1099.7C1208.77,1099.7 1209.29,1099.04 1210,1097.99C1210.73,1096.94 1211.7,1095.56 1212.67,1094.16C1214.6,1091.39 1216.54,1088.61 1216.54,1088.61L1244.88,1107.88C1244.88,1107.88 1244.98,1107.74 1245.15,1107.49C1245.33,1107.23 1245.59,1106.88 1245.87,1106.43C1246.45,1105.55 1247.23,1104.37 1248,1103.19C1249.55,1100.83 1251.1,1098.47 1251.1,1098.47L1229.98,1084.77L1231.34,1082.7L1229.1,1081.26C1229.1,1081.26 1229.5,1080.65 1229.9,1080.04C1230.1,1079.74 1230.29,1079.43 1230.43,1079.2C1230.58,1078.97 1230.67,1078.81 1230.67,1078.81L1228.29,1077.3C1228.29,1077.3 1230.86,1073.13 1233.43,1068.96C1234.07,1067.92 1234.74,1066.89 1235.31,1065.9L1238.42,1060.53L1256.77,1071.17L1260.17,1065.31C1260.54,1064.66 1260.77,1064.22 1260.77,1064.22L1218.13,1040.38C1220.77,1037.79 1223.38,1035.16 1225.95,1032.52L1277.35,1059.73C1277.35,1059.73 1277.65,1059.18 1277.95,1058.63C1278.25,1058.09 1278.52,1057.53 1278.52,1057.53L1227.56,1030.85C1230.78,1027.49 1233.95,1024.08 1237.06,1020.63L1296.93,1049.84L1298.83,1047.14L1284.65,1040.33L1288.26,1032.7L1288.94,1033.02L1288.65,1032.88L1288.73,1032.71L1288.64,1032.55C1288.64,1032.55 1289.38,1032.18 1290.12,1031.81C1290.84,1031.42 1291.57,1031.04 1291.57,1031.04L1305.61,1037.42L1305.76,1037.19L1289.57,1029.84L1292.97,1022.12L1293.66,1022.42L1293.37,1022.29L1293.44,1022.12L1293.35,1021.96L1296.26,1020.4L1310.86,1026.65L1310.92,1026.38L1294.24,1019.25C1294.24,1019.25 1294.45,1018.76 1294.77,1018.04C1295.07,1017.31 1295.47,1016.33 1295.87,1015.36C1296.66,1013.41 1297.46,1011.46 1297.46,1011.46L1298.35,1011.82L1297.86,1011.61L1297.93,1011.44L1297.83,1011.28L1300.69,1009.65L1313.53,1014.81L1313.59,1014.54L1298.65,1008.54L1299.51,1006.44L1281.36,999.246C1281.36,999.246 1281.57,998.752 1281.87,998.009C1282.17,997.268 1282.54,996.261 1282.92,995.263C1283.67,993.262 1284.42,991.262 1284.42,991.262L1266.38,984.451C1271.26,977.727 1275.96,970.86 1280.47,963.862L1316.29,975.418L1316.31,975.338L1286.75,965.807L1289.67,956.598L1290.9,952.3L1302.78,955.767L1303.47,953.37L1289.42,949.345C1291.4,945.99 1293.34,942.607 1295.23,939.198L1306.55,942.168L1307.17,939.753L1301.17,938.211L1301.22,938.039L1301.09,937.905C1301.09,937.905 1303.27,936.123 1306.55,933.451C1309.79,930.742 1314.03,927.049 1318.34,923.262C1320.52,921.376 1322.57,919.439 1324.55,917.615C1326.52,915.771 1328.36,914.051 1329.93,912.576C1331.5,911.086 1332.84,909.836 1333.73,908.951C1334.63,908.064 1335.14,907.557 1335.14,907.557L1330.39,906.688L1330.89,903.8L1321.75,902.18C1321.75,902.18 1321.96,900.929 1322.29,899.053C1322.6,897.174 1323.07,894.679 1323.45,892.168C1324.18,887.143 1324.91,882.118 1324.91,882.118L1334.11,883.383L1334.53,880.471L1349.92,882.5C1349.92,882.5 1350.27,879.581 1350.79,875.202C1351.04,873.012 1351.34,870.457 1351.66,867.72C1351.91,864.976 1352.18,862.049 1352.45,859.121C1353.05,853.272 1353.35,847.399 1353.65,842.999C1353.96,838.6 1354.04,835.661 1354.04,835.661L1336.68,834.869C1338.84,826.378 1340.76,817.789 1342.42,809.109Z" style="fill:rgb(255,0,0);fill-rule:nonzero;"/>
                    </g>
                    <g transform="matrix(1.08086,0.897739,-0.897739,1.08086,688.26,-765.013)">
                        <path d="M1376.86,799.206C1376.97,803.795 1377.03,808.421 1377.03,813.059C1377.03,838.541 1375.35,863.633 1372.09,888.203C1369.22,896.76 1365.6,906.742 1361.56,916.557C1356.39,929.272 1350.58,941.709 1345.96,950.904C1344.8,953.2 1343.73,955.304 1342.79,957.169C1341.8,959.012 1340.94,960.62 1340.24,961.944C1338.82,964.591 1338.01,966.103 1338.01,966.103L1319.32,955.88C1319.32,955.88 1319.03,956.418 1318.59,957.225C1318.14,958.023 1317.54,959.087 1316.93,960.151C1315.73,962.28 1314.53,964.409 1314.53,964.409L1320.71,967.964C1320.71,967.964 1320.49,968.357 1320.16,968.944C1319.84,969.537 1319.38,970.311 1318.91,971.082C1317.99,972.628 1317.07,974.174 1317.07,974.174L1347.81,992.474C1347.81,992.474 1340.27,1005.26 1331.92,1017.52C1323.62,1029.82 1314.53,1041.55 1314.53,1041.55L1286.15,1019.77C1286.15,1019.77 1285.21,1021 1284.26,1022.23C1283.79,1022.85 1283.32,1023.47 1282.96,1023.93C1282.6,1024.38 1282.36,1024.68 1282.36,1024.68L1322.39,1056.26C1319.1,1063.19 1315.67,1070.04 1312.1,1076.81L1275.6,1045.39C1275.6,1045.39 1275.08,1046.02 1274.27,1046.92C1273.47,1047.83 1272.4,1049.04 1271.33,1050.25C1270.26,1051.46 1269.19,1052.67 1268.38,1053.58C1267.59,1054.5 1267.03,1055.08 1267.03,1055.08L1285.02,1071.43C1285.02,1071.43 1281.08,1075.67 1277.14,1079.91C1273.1,1084.06 1269.07,1088.2 1269.07,1088.2L1259.17,1078.35L1255.73,1081.72L1265.52,1091.67C1265.52,1091.67 1264.49,1092.68 1262.94,1094.2C1262.16,1094.96 1261.27,1095.86 1260.29,1096.79C1259.3,1097.71 1258.24,1098.7 1257.19,1099.69C1255.07,1101.66 1252.97,1103.65 1251.37,1105.11C1249.75,1106.56 1248.67,1107.52 1248.67,1107.52L1223.07,1079.04L1221.91,1080.08L1231.35,1090.66C1231.42,1090.74 1231.41,1090.86 1231.33,1090.93C1231.33,1090.93 1230.17,1091.97 1229.01,1093C1228.42,1093.52 1227.84,1094.04 1227.41,1094.43C1226.98,1094.82 1226.67,1095.07 1226.67,1095.07L1243.81,1114.78C1243.87,1114.85 1243.86,1114.97 1243.78,1115.04C1243.78,1115.04 1242.52,1116.11 1240.62,1117.72C1238.72,1119.32 1236.23,1121.51 1233.66,1123.59C1231.08,1125.67 1228.51,1127.76 1226.58,1129.32C1224.65,1130.9 1223.33,1131.89 1223.33,1131.89C1223.24,1131.95 1223.12,1131.94 1223.06,1131.87L1221.74,1130.17L1220.22,1131.34C1220.14,1131.4 1220.03,1131.39 1219.97,1131.31L1201.62,1107.66C1201.62,1107.66 1198.58,1110 1195.53,1112.34C1192.42,1114.61 1189.32,1116.88 1189.32,1116.88L1195.59,1125.53L1191.89,1128.23L1209.53,1153.04C1209.53,1153.04 1209.18,1153.31 1208.56,1153.74C1207.93,1154.17 1207.03,1154.79 1205.95,1155.53C1203.8,1157.02 1200.93,1159 1198.06,1160.97C1195.14,1162.88 1192.23,1164.79 1190.04,1166.22C1188.94,1166.94 1188.03,1167.54 1187.39,1167.95C1186.74,1168.35 1186.37,1168.58 1186.37,1168.58L1192.74,1178.65C1192.74,1178.65 1189.54,1180.63 1186.34,1182.62C1184.73,1183.6 1183.14,1184.61 1181.92,1185.33C1180.7,1186.04 1179.89,1186.51 1179.89,1186.51L1150.44,1136.91L1145.88,1139.58L1153.59,1152.91C1153.59,1152.91 1152.73,1153.41 1151.43,1154.17C1150.15,1154.95 1148.38,1155.88 1146.63,1156.86C1143.12,1158.79 1139.62,1160.72 1139.62,1160.72L1149.85,1179.84L1141.39,1184.23L1160.12,1220.89C1160.17,1220.98 1160.11,1221.1 1160.01,1221.15C1160.01,1221.15 1158.72,1221.81 1156.8,1222.8C1154.85,1223.75 1152.25,1225.02 1149.66,1226.29C1147.06,1227.55 1144.47,1228.82 1142.49,1229.7C1140.52,1230.61 1139.21,1231.21 1139.21,1231.21C1139.1,1231.26 1138.98,1231.22 1138.93,1231.13L1138.12,1229.35L1139.01,1231.41L1136.55,1230.07L1136.32,1230.17C1136.12,1230.27 1135.89,1230.2 1135.82,1230.04L1135.59,1229.53L1135.3,1229.37L1134.5,1227.13L1119.1,1193.07L1117.3,1192.7L1117.65,1192.53L1104.88,1164.12C1104.88,1164.12 1104.02,1164.51 1103.17,1164.9C1102.32,1165.3 1101.45,1165.66 1101.45,1165.66L1130.01,1230.55C1130.01,1230.55 1127.23,1231.74 1123.05,1233.53C1118.9,1235.36 1113.25,1237.55 1107.63,1239.8C1104.82,1240.92 1101.97,1241.92 1099.31,1242.92C1096.64,1243.89 1094.18,1244.86 1092.02,1245.57C1087.73,1247.04 1084.87,1248.02 1084.87,1248.02L1084.22,1246.09L1082.09,1246.82L1079.31,1238.46C1079.31,1238.46 1077.83,1238.99 1075.57,1239.69C1073.32,1240.39 1070.32,1241.34 1067.32,1242.29C1065.83,1242.77 1064.32,1243.21 1062.9,1243.62C1061.49,1244.02 1060.16,1244.41 1059.03,1244.73C1056.76,1245.39 1055.25,1245.82 1055.25,1245.82C1055.22,1245.83 1055.2,1245.83 1055.17,1245.83L1055.15,1245.89C1055.15,1245.89 1054.34,1245.73 1053.52,1245.58C1052.7,1245.43 1051.88,1245.25 1051.88,1245.25L1051.97,1245.18C1051.93,1245.16 1051.89,1245.13 1051.88,1245.08L1045.41,1221.47L1043.41,1222L1042.76,1219.56L1039.28,1220.47L1036.96,1211.62C1036.96,1211.62 1035.7,1211.94 1033.82,1212.44C1032.88,1212.68 1031.78,1212.99 1030.6,1213.27L1019.95,1215.78C1018.04,1216.19 1016.77,1216.46 1016.77,1216.46C1016.7,1216.48 1016.64,1216.44 1016.62,1216.37L1016.44,1215.53L1016.21,1215.58C1019.17,1229.28 1022.07,1242.69 1024.6,1254.42C1026.86,1264.91 1028.87,1274.21 1030.42,1281.41L1030.47,1281.64C1030.47,1281.64 1026.08,1282.56 1021.69,1283.49C1019.49,1283.94 1017.28,1284.32 1015.63,1284.64C1013.97,1284.95 1012.87,1285.15 1012.87,1285.15L1012.83,1284.92L995.614,1191.23L993.422,1191.63C993.311,1191.65 993.208,1191.58 993.189,1191.48L990.425,1175.94C990.425,1175.94 989.676,1176.08 988.926,1176.22C988.179,1176.37 987.424,1176.48 987.424,1176.48L992.519,1206.29C992.537,1206.4 992.463,1206.49 992.358,1206.51L986.19,1207.5L992.027,1244.65L993.204,1244.46C993.303,1244.45 993.394,1244.51 993.407,1244.59L993.452,1244.87C993.467,1244.96 993.399,1245.04 993.3,1245.06L992.423,1245.2L992.087,1245.45L994.271,1259.19L994.017,1259.23L993.92,1259.45C993.92,1259.45 993.007,1259.15 991.636,1258.71C990.953,1258.49 990.156,1258.23 989.302,1257.95C988.45,1257.65 987.541,1257.34 986.631,1257.03C983.024,1255.76 979.416,1254.49 979.416,1254.49C979.416,1254.49 976.286,1256.7 973.089,1258.78C969.876,1260.89 966.663,1263 966.663,1263L966.515,1262.82L966.259,1262.85L964.856,1249L964.467,1248.85L963.84,1248.92C963.74,1248.93 963.653,1248.87 963.644,1248.78L963.615,1248.5C963.606,1248.41 963.679,1248.33 963.778,1248.32L964.734,1248.21L964.389,1244.87C964.389,1244.87 963.655,1244.95 962.92,1245.03C962.186,1245.12 961.449,1245.17 961.449,1245.17L962.489,1255.85C962.498,1255.94 962.415,1256.03 962.303,1256.04C962.303,1256.04 960.056,1256.24 956.686,1256.53C955.001,1256.68 953.035,1256.85 950.928,1257.03C948.818,1257.16 946.567,1257.31 944.316,1257.45C942.066,1257.59 939.816,1257.75 937.704,1257.85C935.591,1257.93 933.619,1258.01 931.929,1258.08C928.549,1258.21 926.295,1258.3 926.295,1258.3L927.106,1286.98C927.106,1286.98 926.558,1287.01 925.599,1287.02C924.64,1287.03 923.27,1287.05 921.627,1287.08C919.983,1287.1 918.066,1287.13 916.011,1287.16C914.984,1287.17 913.922,1287.19 912.843,1287.2C911.765,1287.19 910.669,1287.18 909.573,1287.17C907.382,1287.15 905.19,1287.14 903.135,1287.12C901.081,1287.1 899.163,1287.08 897.521,1287.01C894.235,1286.91 892.044,1286.84 892.044,1286.84L893.16,1254.66C893.16,1254.66 891.896,1254.62 890,1254.56C888.103,1254.52 885.579,1254.35 883.054,1254.21C880.529,1254.07 878.003,1253.93 876.11,1253.82C875.162,1253.78 874.375,1253.69 873.823,1253.65C873.272,1253.61 872.957,1253.58 872.957,1253.58L875.845,1214.18C875.845,1214.18 872.214,1213.89 868.583,1213.59C866.766,1213.47 864.956,1213.26 863.598,1213.12C862.239,1212.98 861.334,1212.88 861.334,1212.88L858.346,1241.76L854.815,1241.38L854.478,1244.44C854.478,1244.44 853.425,1244.33 852.373,1244.22C851.319,1244.12 850.27,1243.97 850.27,1243.97L849.887,1247.2C849.887,1247.2 848.1,1246.97 845.42,1246.63C842.742,1246.26 839.159,1245.87 835.603,1245.29C832.042,1244.74 828.481,1244.19 825.811,1243.78C823.15,1243.31 821.376,1242.99 821.376,1242.99L825.598,1218.9C825.598,1218.9 822.944,1218.42 820.29,1217.95C818.961,1217.73 817.639,1217.46 816.65,1217.26C815.659,1217.06 814.998,1216.92 814.998,1216.92L803.891,1273.1C803.891,1273.1 799.585,1272.23 795.278,1271.36C790.992,1270.39 786.706,1269.42 786.706,1269.42L802.815,1199.66L799.707,1198.95L779.813,1282.58C779.813,1282.58 779.47,1282.5 778.87,1282.36C778.273,1282.21 777.42,1282 776.397,1281.74C774.35,1281.23 771.623,1280.54 768.895,1279.85C766.162,1279.18 763.451,1278.42 761.419,1277.85C759.386,1277.29 758.031,1276.91 758.031,1276.91L785.263,1179.74L781.662,1178.08L776.619,1195.5C776.619,1195.5 775.962,1195.33 774.991,1195.03C774.018,1194.73 772.72,1194.34 771.421,1193.94C768.825,1193.15 766.229,1192.36 766.229,1192.36L766.488,1191.54L766.368,1191.89L766.146,1191.82L765.96,1191.94C765.96,1191.94 765.345,1191.14 764.73,1190.33C764.123,1189.51 763.516,1188.69 763.516,1188.69L768.972,1171.77L768.679,1171.62L762.376,1191.13C762.376,1191.13 759.8,1190.27 757.224,1189.42C755.935,1188.99 754.647,1188.57 753.681,1188.25C752.722,1187.91 752.083,1187.68 752.083,1187.68L752.367,1186.86L752.236,1187.21L752.018,1187.13L751.828,1187.25L749.489,1183.92L755.642,1166.67L755.317,1166.62L748.273,1186.31C748.273,1186.31 745.719,1185.4 743.165,1184.49C740.632,1183.52 738.099,1182.55 738.099,1182.55L738.494,1181.51L738.262,1182.08L738.046,1181.99L737.852,1182.11L735.609,1178.73L741.43,1163.88L741.106,1163.82L734.318,1181.09L731.6,1180.04L723.243,1200.93L712.19,1196.36L691.015,1245.86C691.015,1245.86 685.969,1245.48 680.923,1245.1C678.385,1244.91 675.84,1244.7 673.95,1244.49C672.049,1244.3 670.782,1244.17 670.782,1244.17C670.782,1244.17 669.849,1243.26 668.45,1241.9C667.061,1240.52 665.186,1238.76 663.376,1236.88C659.768,1233.18 656.162,1229.47 656.162,1229.47L693.774,1156.07L693.679,1156.02L677.342,1187.89C677.342,1187.89 677.059,1187.75 676.563,1187.5C676.065,1187.25 675.359,1186.89 674.523,1186.44C672.845,1185.54 670.605,1184.35 668.367,1183.16C667.249,1182.56 666.13,1181.96 665.081,1181.4C664.032,1180.84 663.076,1180.28 662.245,1179.82C660.589,1178.88 659.485,1178.26 659.485,1178.26L666.498,1165.83L663.54,1164.15L638.727,1207.44C638.727,1207.44 637.779,1206.9 636.357,1206.1C634.939,1205.28 633.079,1204.15 631.206,1203.04C629.336,1201.92 627.467,1200.8 626.065,1199.96C625.364,1199.54 624.78,1199.19 624.372,1198.95C623.968,1198.69 623.737,1198.55 623.737,1198.55L649.925,1156.08L647.053,1154.27L643.264,1160.32L643.054,1160.18L642.84,1160.27C642.84,1160.27 641.227,1156.97 638.808,1152.02C637.668,1149.52 636.339,1146.6 634.914,1143.48C634.221,1141.93 633.505,1140.33 632.778,1138.7C632.085,1137.05 631.382,1135.38 630.68,1133.71C629.298,1130.35 627.904,1127.09 626.7,1123.93C625.515,1120.8 624.409,1117.88 623.46,1115.38C622.519,1112.9 621.789,1110.8 621.287,1109.33C620.782,1107.86 620.494,1107.03 620.494,1107.03L617.074,1111.43L614.129,1109.12L607.492,1117.53C607.492,1117.53 607.16,1117.27 606.58,1116.81C606.004,1116.35 605.159,1115.73 604.186,1114.92C602.236,1113.32 599.635,1111.17 597.034,1109.04C596.386,1108.5 595.736,1107.96 595.097,1107.43L589.995,1103.02C588.086,1101.36 586.812,1100.26 586.812,1100.26L593.903,1092.24C593.903,1092.24 593.184,1091.64 592.498,1091C591.805,1090.37 591.112,1089.73 591.112,1089.73L603.067,1076.42C603.067,1076.42 600.473,1074.06 596.584,1070.52C592.788,1066.88 587.67,1062.08 582.78,1057.05C581.551,1055.79 580.291,1054.58 579.106,1053.32C577.921,1052.06 576.755,1050.82 575.627,1049.63C573.368,1047.24 571.244,1045.02 569.512,1043.03C565.995,1039.11 563.651,1036.5 563.651,1036.5L536.359,1060.36C536.292,1060.42 536.185,1060.41 536.123,1060.33C536.123,1060.33 531.897,1055.37 527.67,1050.4C525.618,1047.87 523.566,1045.33 522.028,1043.43C521.258,1042.48 520.617,1041.69 520.168,1041.13C519.715,1040.58 519.474,1040.25 519.474,1040.25C519.412,1040.17 519.425,1040.06 519.495,1040.01L532.735,1029.6L528.274,1023.79C528.206,1023.7 528.217,1023.58 528.301,1023.51L553.07,1004.65L564.221,996.076C564.221,996.076 564.832,996.871 566.008,998.408C567.19,999.947 568.918,1002.25 571.314,1005.15C572.496,1006.61 573.816,1008.25 575.268,1010.04C576.725,1011.84 578.396,1013.73 580.153,1015.81C581.036,1016.85 581.952,1017.92 582.9,1019.04C583.857,1020.14 584.884,1021.25 585.923,1022.42C586.965,1023.58 588.04,1024.78 589.147,1026.02C589.7,1026.63 590.262,1027.26 590.832,1027.89C591.418,1028.52 592.012,1029.14 592.614,1029.78C602.158,1040.04 614.274,1052.01 629.086,1064.67C643.92,1077.3 661.534,1090.52 681.903,1103.16C702.3,1115.72 725.449,1127.7 751.031,1137.77C776.594,1147.85 804.573,1156.01 834.126,1161.28C863.665,1166.55 894.768,1169.03 926.265,1167.89C957.752,1166.79 989.628,1162.34 1020.56,1154.26C1036.04,1150.25 1051.28,1145.4 1066.16,1139.75C1081.05,1134.13 1095.52,1127.6 1109.52,1120.43C1137.52,1106.07 1163.48,1088.85 1186.76,1069.81C1210.07,1050.78 1230.57,1030.08 1248.01,1008.85C1265.47,987.631 1279.9,965.931 1291.55,944.992C1303.21,924.051 1312.21,903.929 1319.01,885.667C1322.48,876.559 1325.28,867.87 1327.79,859.817C1328.96,855.764 1330.18,851.904 1331.15,848.158C1331.66,846.292 1332.15,844.469 1332.63,842.69C1333.08,840.902 1333.51,839.158 1333.94,837.459C1337.28,823.861 1339.32,813.036 1340.58,805.64C1341.23,801.945 1341.61,799.092 1341.92,797.179C1342.22,795.264 1342.37,794.275 1342.37,794.275L1376.86,799.206Z" style="fill:rgb(255,0,0);fill-rule:nonzero;"/>
                    </g>
                    <g transform="matrix(1.08086,0.897739,-0.897739,1.08086,688.26,-765.013)">
                        <path d="M806.7,245.172L812.376,247.217C815.573,248.41 818.966,249.77 822.313,251.094C823.979,251.764 825.645,252.434 827.286,253.094C828.916,253.793 830.519,254.48 832.07,255.146C835.129,256.484 837.984,257.732 840.431,258.803C845.251,261.068 848.465,262.58 848.465,262.58L847.734,257.055L851.439,256.552L850.205,246.633C859.3,247.284 868.335,248.151 877.343,249.229L877.674,254.025L881.42,253.805L882.513,271.665C882.513,271.665 883.388,271.613 884.92,271.522C886.452,271.448 888.637,271.256 891.268,271.198C893.897,271.108 896.965,271.003 900.251,270.89C903.54,270.856 907.048,270.82 910.555,270.784C917.57,270.819 924.587,270.922 929.843,271.192C932.472,271.307 934.664,271.372 936.196,271.465C937.727,271.567 938.602,271.625 938.602,271.625L939.288,260.178C949.973,262.688 960.541,265.5 970.969,268.598L968.676,286.393L966.945,300.352C966.945,300.352 962.969,299.895 955.516,299.041C948.045,298.351 937.078,297.327 923.072,296.924C909.072,296.519 892.037,296.767 872.606,298.457C871.391,298.559 870.167,298.66 868.933,298.763C867.699,298.875 866.461,299.032 865.211,299.164C862.711,299.438 860.174,299.715 857.6,299.997C855.034,300.345 852.431,300.699 849.793,301.058C847.149,301.382 844.489,301.828 841.791,302.269C840.441,302.486 839.083,302.704 837.717,302.924C837.033,303.034 836.348,303.144 835.661,303.255C834.977,303.385 834.291,303.514 833.602,303.645C830.848,304.159 828.059,304.681 825.239,305.209C819.63,306.414 813.873,307.573 808.06,309.043C796.414,311.881 784.381,315.256 772.136,319.381C759.897,323.521 747.426,328.332 734.872,333.892C709.766,345.001 684.339,359.151 659.828,376.496C647.577,385.163 635.528,394.615 623.891,404.818C612.256,415.013 601.035,425.931 590.367,437.511C569.031,460.667 549.895,486.477 533.892,514.14C517.93,541.821 504.979,571.255 495.551,601.31C486.128,631.367 480.107,661.965 477.292,691.85C474.492,721.745 474.913,750.899 477.773,778.242C479.201,791.918 481.235,805.147 483.741,817.831C486.26,830.513 489.292,842.64 492.633,854.149C499.287,877.185 507.35,897.685 515.531,915.348C516.042,916.453 516.527,917.558 517.043,918.639C517.569,919.715 518.091,920.781 518.608,921.839C519.64,923.956 520.655,926.037 521.651,928.082C522.701,930.099 523.73,932.082 524.742,934.026C525.749,935.973 526.724,937.889 527.765,939.722C529.82,943.401 531.701,946.981 533.699,950.291C535.654,953.623 537.474,956.828 539.356,959.779C542.979,965.766 546.459,970.961 549.441,975.507C550.988,977.745 552.419,979.815 553.731,981.711C554.387,982.659 555.014,983.564 555.61,984.424C556.227,985.269 556.813,986.071 557.367,986.829C559.588,989.856 561.256,992.202 562.428,993.748C563.613,995.286 564.224,996.08 564.224,996.08L515.014,1033.54C515.014,1033.54 514.258,1032.56 513.123,1031.08C511.983,1029.61 510.552,1027.58 509.08,1025.58C507.617,1023.57 506.155,1021.57 505.058,1020.06C503.998,1018.53 503.292,1017.51 503.292,1017.51L518.008,1007.2L516.249,1004.65L495.569,1018.94L491.939,1013.69C491.291,1012.7 490.6,1011.64 489.908,1010.59C488.527,1008.48 487.146,1006.37 486.11,1004.78C485.593,1003.99 485.161,1003.33 484.86,1002.87C484.569,1002.4 484.403,1002.13 484.403,1002.13L505.637,988.675L504.024,986.067L476.616,1003.19C476.616,1003.19 475.941,1002.1 474.93,1000.47C473.933,998.824 472.537,996.673 471.255,994.453C468.668,990.027 466.081,985.601 466.081,985.601L488.087,973.05C488.087,973.05 487.873,972.678 487.471,971.982C487.083,971.278 486.513,970.245 485.789,968.93C485.065,967.616 484.185,966.02 483.176,964.19C482.673,963.273 482.139,962.298 481.575,961.27C481.035,960.229 480.467,959.135 479.875,957.993C478.691,955.708 477.409,953.234 476.052,950.616C474.761,947.967 473.399,945.172 471.989,942.282C471.637,941.56 471.281,940.832 470.923,940.097C470.583,939.355 470.241,938.608 469.896,937.855C469.208,936.35 468.511,934.827 467.81,933.291C467.112,931.754 466.388,930.213 465.699,928.65C465.028,927.079 464.354,925.501 463.68,923.924C458.272,911.316 453.415,898.472 450.188,888.7C448.471,883.848 447.276,879.728 446.349,876.874C445.897,875.442 445.543,874.317 445.301,873.551C445.063,872.783 444.952,872.369 444.952,872.369L465.361,866.253L462.65,856.853L455.774,858.756C455.774,858.756 455.638,858.327 455.472,857.672C455.302,857.019 455.073,856.148 454.846,855.277C454.389,853.536 453.933,851.794 453.933,851.794L419.313,860.805C419.313,860.805 419.078,859.908 418.666,858.339C418.462,857.554 418.214,856.601 417.928,855.508C417.668,854.408 417.375,853.168 417.055,851.815C416.428,849.106 415.644,845.956 414.898,842.561C414.182,839.16 413.417,835.532 412.654,831.904C411.975,828.258 411.297,824.613 410.661,821.196C410.029,817.777 409.572,814.564 409.114,811.822C408.668,809.077 408.301,806.789 408.103,805.178C407.885,803.571 407.76,802.653 407.76,802.653L443.195,797.744L442.357,791.586L381.259,799.231C381.259,799.231 381.213,798.879 381.132,798.262C381.063,797.645 380.963,796.762 380.845,795.703C380.609,793.584 380.294,790.759 379.98,787.935C379.636,785.113 379.449,782.275 379.245,780.154C379.06,778.03 378.937,776.615 378.937,776.615L432.377,772.224C432.377,772.224 432.306,771.419 432.201,770.21C432.079,769.003 431.993,767.388 431.889,765.774C431.686,762.546 431.482,759.319 431.482,759.319L407.214,760.657C407.214,760.657 407.191,760.297 407.151,759.665C407.105,759.034 407.058,758.13 407.023,757.046C406.939,754.878 406.826,751.986 406.713,749.095C406.569,746.205 406.575,743.31 406.53,741.141C406.497,738.97 406.475,737.524 406.475,737.524L420.442,737.392C420.442,737.392 420.423,736.187 420.405,734.982C420.389,734.379 420.398,733.777 420.403,733.325C420.407,732.872 420.409,732.571 420.409,732.571L406.451,732.567C406.451,732.567 406.463,731.122 406.482,728.952C406.515,726.783 406.498,723.89 406.581,721L406.927,710.431C406.947,709.798 406.975,709.438 406.975,709.438L445.23,711.196L445.319,709.635L431.156,708.937C431.054,708.931 430.974,708.844 430.981,708.733L431.333,702.515L405.269,700.883C405.171,700.877 405.097,700.784 405.103,700.677C405.103,700.677 405.126,700.263 405.167,699.539C405.209,698.816 405.258,697.782 405.368,696.544C405.567,694.067 405.833,690.764 406.099,687.461C406.362,684.158 406.765,680.868 407.006,678.396C407.264,675.924 407.437,674.277 407.437,674.277C407.448,674.17 407.537,674.091 407.633,674.102L409.771,674.35C409.771,674.35 409.826,673.876 409.882,673.403C409.943,672.931 410.003,672.458 410.003,672.458C410.017,672.356 410.103,672.279 410.2,672.29L439.92,675.853C439.92,675.853 440.41,672.041 440.902,668.229C441.127,666.319 441.433,664.422 441.651,662.998C441.869,661.573 442.015,660.623 442.015,660.623L431.458,659.01L432.151,654.478L402.095,649.598C402.095,649.598 402.161,649.167 402.277,648.413C402.409,647.662 402.597,646.588 402.822,645.3C403.28,642.726 403.891,639.292 404.501,635.859C405.193,632.442 405.884,629.024 406.403,626.461C406.906,623.894 407.307,622.197 407.307,622.197L395.667,619.658C395.667,619.658 396.503,615.984 397.337,612.312C397.755,610.476 398.165,608.638 398.526,607.272C398.872,605.903 399.102,604.99 399.102,604.99L455.087,618.883L456.382,613.755L441.478,609.878C441.478,609.878 441.723,608.909 442.091,607.453C442.494,606.007 443.031,604.079 443.568,602.151C444.105,600.223 444.641,598.295 445.043,596.849C445.238,596.124 445.433,595.53 445.557,595.11C445.685,594.692 445.758,594.452 445.758,594.452L424.968,588.308L427.744,579.192L388.489,566.784C388.393,566.753 388.346,566.633 388.381,566.516C388.381,566.516 388.478,566.168 388.68,565.57C388.878,564.971 389.161,564.114 389.5,563.087C390.18,561.032 391.087,558.292 391.994,555.553C392.873,552.804 393.906,550.107 394.616,548.062C395.346,546.025 395.833,544.666 395.833,544.666C395.874,544.551 395.981,544.489 396.077,544.524L397.916,545.193L395.823,544.38L398.497,543.573L398.584,543.33C398.659,543.121 398.865,543.006 399.036,543.069L399.556,543.261L399.873,543.165L402.028,544.173L437.094,557.109L438.616,556.087L438.492,556.456L467.694,567.3L469.043,563.795L402.784,538.588C402.784,538.588 403.873,535.766 405.506,531.533C406.312,529.412 407.365,526.982 408.435,524.356C408.977,523.046 409.538,521.692 410.107,520.316C410.67,518.938 411.256,517.544 411.878,516.165C414.322,510.63 416.746,505.086 418.731,501.003C420.67,496.899 421.962,494.163 421.962,494.163L423.793,495.054L424.799,493.039L432.698,496.923C432.698,496.923 433.404,495.518 434.461,493.41C435.535,491.31 436.897,488.474 438.379,485.7C439.858,482.925 441.338,480.149 442.448,478.068C443.005,477.028 443.469,476.162 443.794,475.556C444.132,474.957 444.325,474.614 444.325,474.614C444.34,474.588 444.358,474.574 444.375,474.553L444.35,474.499L447.127,472.629L447.113,472.745C447.158,472.728 447.21,472.728 447.252,472.752L468.613,484.706L469.629,482.907L471.827,484.149L473.597,481.018L481.534,485.578C481.534,485.578 481.693,485.296 481.973,484.801C482.259,484.311 482.636,483.593 483.144,482.763C484.144,481.093 485.476,478.866 486.808,476.639C487.474,475.526 488.14,474.413 488.764,473.369C489.392,472.328 490.014,471.378 490.53,470.552C491.57,468.908 492.263,467.811 492.263,467.811C492.301,467.751 492.377,467.73 492.433,467.766L493.164,468.229L493.287,468.035C481.453,460.526 469.861,453.172 459.734,446.747C450.671,440.998 442.635,435.9 436.412,431.952L436.217,431.829C436.217,431.829 436.817,430.88 437.717,429.457C438.618,428.035 439.808,426.131 441.069,424.274C443.562,420.539 446.055,416.805 446.055,416.805L525.059,470.443C525.059,470.443 525.368,469.98 525.677,469.516C525.982,469.05 526.302,468.594 526.302,468.594C526.367,468.502 526.492,468.478 526.58,468.539L539.586,477.478L541.343,474.987L516.53,457.684C516.442,457.624 516.427,457.506 516.489,457.418L520.084,452.311L489.526,430.384L488.839,431.358C488.781,431.44 488.678,431.464 488.609,431.415L488.374,431.248C488.302,431.196 488.29,431.089 488.348,431.007L488.859,430.282L488.918,429.867L477.596,421.772L477.745,421.562L477.661,421.342C477.661,421.342 477.872,421.23 478.244,421.034C478.614,420.837 479.143,420.557 479.794,420.234C481.085,419.589 482.807,418.728 484.53,417.868C487.953,416.179 491.376,414.489 491.376,414.489C491.376,414.489 491.528,413.54 491.8,412.143C492.07,410.737 492.43,408.862 492.789,406.987C493.533,403.208 494.278,399.429 494.278,399.429L494.509,399.45L494.668,399.247L505.512,407.973L505.896,407.805L506.297,407.318C506.361,407.24 506.468,407.222 506.536,407.278L506.761,407.458C506.827,407.511 506.831,407.618 506.768,407.695L506.157,408.438L508.785,410.545L510.662,408.261L502.331,401.501C502.255,401.44 502.251,401.319 502.322,401.233C502.322,401.233 503.754,399.49 505.905,396.876C508.024,394.236 510.988,390.835 513.944,387.426C516.865,383.985 519.924,380.669 522.203,378.168C524.482,375.667 526.001,374 526.001,374L505.026,354.428C505.026,354.428 505.403,354.03 506.064,353.334C506.727,352.642 507.674,351.651 508.811,350.463C509.948,349.276 511.275,347.891 512.697,346.407C513.409,345.665 514.144,344.899 514.891,344.121C515.657,343.36 516.434,342.587 517.211,341.814C520.329,338.733 523.414,335.618 525.789,333.347C528.178,331.089 529.77,329.585 529.77,329.585L551.881,352.986C551.881,352.986 552.801,352.118 554.18,350.817C555.556,349.511 557.394,347.773 559.291,346.102C563.056,342.726 566.821,339.35 566.821,339.35L592.837,369.086C592.837,369.086 595.61,366.721 598.382,364.356C599.768,363.174 601.155,361.992 602.195,361.106C603.254,360.243 603.961,359.668 603.961,359.668L585.503,337.267L588.263,335.034L586.327,332.652L589.619,329.992L587.588,327.451C587.588,327.451 588.992,326.323 591.097,324.631C593.242,322.989 596.102,320.799 598.962,318.609C601.799,316.387 604.746,314.313 606.929,312.721C609.117,311.135 610.576,310.079 610.576,310.079L624.776,329.996C624.776,329.996 625.322,329.6 626.14,329.007C626.951,328.402 628.069,327.649 629.181,326.887C631.406,325.365 633.63,323.842 633.63,323.842L605.666,282.763C611.176,280.645 616.728,278.611 622.326,276.658L654.468,327.264C654.468,327.264 655.137,326.832 655.806,326.399C656.47,325.959 657.154,325.55 657.154,325.55L625.804,275.459C632.709,273.102 639.674,270.875 646.688,268.781L680.976,328.759L684.69,327.366L675.82,311.54C675.82,311.54 676.402,311.193 677.294,310.703C678.19,310.221 679.384,309.577 680.578,308.933C682.966,307.644 685.354,306.355 685.354,306.355L685.76,307.119L685.594,306.785L685.801,306.678L685.84,306.455C685.84,306.455 686.845,306.58 687.848,306.705C688.846,306.823 689.856,306.973 689.856,306.973L698.074,322.738L698.389,322.639L688.928,304.455L698.61,299.552L698.992,300.328L698.836,299.99L699.045,299.888L699.092,299.666C699.092,299.666 700.097,299.834 701.102,300.002C702.106,300.176 703.11,300.35 703.11,300.35L711.062,316.839L711.331,316.648L702.259,297.802C702.259,297.802 704.709,296.642 707.16,295.48C708.385,294.899 709.61,294.317 710.529,293.882C711.459,293.471 712.08,293.196 712.08,293.196L712.537,294.203L712.296,293.64L712.511,293.55L712.565,293.332L716.557,294.133L723.033,308.705L723.31,308.524L715.784,291.559L718.45,290.379L709.45,269.754C709.45,269.754 710.133,269.452 711.159,268.998C712.181,268.537 713.552,267.938 714.94,267.382C717.705,266.244 720.471,265.105 720.471,265.105L715.476,252.868C727.348,250.894 739.347,249.289 751.457,248.066L762.067,280.291L762.168,280.258L751.573,248.054C758.382,247.367 765.227,246.801 772.105,246.358L774.284,253.996C774.284,253.996 775.099,253.755 775.913,253.515C776.734,253.294 777.554,253.075 777.554,253.075L775.627,246.141C781.055,245.824 786.506,245.584 791.979,245.422L792.875,249.099L796.178,248.305L795.474,245.329C799.193,245.24 802.941,245.187 806.7,245.172Z" style="fill:rgb(255,0,0);fill-rule:nonzero;"/>
                    </g>
                </g>
            </g>
        </g>
    </g>
</svg>
